<?xml version="1.0" standalone="no"?><!-- Generator: Gravit.io --><svg xmlns="http://www.w3.org/2000/svg" xmlns:xlink="http://www.w3.org/1999/xlink" style="isolation:isolate" viewBox="382.974 316.063 497.37 219.227" width="497.37" height="219.227"><defs><clipPath id="_clipPath_5t6pmZCCGXuNHY3FaX8zOiNSmdEIRstJ"><rect x="382.974" y="316.063" width="497.37" height="219.227"/></clipPath></defs><g clip-path="url(#_clipPath_5t6pmZCCGXuNHY3FaX8zOiNSmdEIRstJ)"><path d=" M 389.68 400.789 L 389.68 400.789 L 389.68 400.789 Q 389.211 400.32 388.859 399.676 L 388.859 399.676 L 388.859 399.676 Q 388.508 399.031 388.273 397.977 L 388.273 397.977 L 388.273 397.977 Q 386.633 395.984 385.695 393.406 L 385.695 393.406 L 385.695 393.406 Q 384.758 390.828 384.406 388.074 L 384.406 388.074 L 384.406 388.074 Q 384.055 385.32 384.289 382.508 L 384.289 382.508 L 384.289 382.508 Q 384.523 379.695 385.109 377.234 L 385.109 377.234 L 385.109 377.234 Q 385.461 376.063 385.695 374.773 L 385.695 374.773 L 385.695 374.773 Q 386.281 372.547 386.867 370.379 L 386.867 370.379 L 386.867 370.379 Q 387.453 368.211 388.625 366.805 L 388.625 366.805 L 388.625 366.805 Q 388.156 365.516 388.742 363.992 L 388.742 363.992 L 388.742 363.992 Q 389.328 362.469 389.914 361.18 L 389.914 361.18 L 389.914 361.18 Q 390.148 360.828 390.266 360.535 L 390.266 360.535 L 390.266 360.535 Q 390.383 360.242 390.5 360.008 L 390.5 360.008 L 390.5 360.008 Q 391.906 355.906 393.254 352.098 L 393.254 352.098 L 393.254 352.098 Q 394.602 348.289 395.891 344.773 L 395.891 344.773 L 395.891 344.773 Q 398.234 338.328 400.402 332.117 L 400.402 332.117 L 400.402 332.117 Q 402.57 325.906 404.328 318.875 L 404.328 318.875 L 404.328 318.875 Q 405.266 318.172 405.969 317.938 L 405.969 317.938 L 405.969 317.938 Q 406.203 317.82 406.555 317.703 L 406.555 317.703 L 406.555 317.703 Q 406.906 317.586 407.375 317.586 L 407.375 317.586 L 407.375 317.586 Q 409.836 318.875 413.176 319.988 L 413.176 319.988 L 413.176 319.988 Q 416.516 321.102 418.859 321.102 L 418.859 321.102 L 420.852 322.859 L 420.852 322.859 Q 422.375 324.617 423.488 326.551 L 423.488 326.551 L 423.488 326.551 Q 424.602 328.484 424.133 331.531 L 424.133 331.531 L 424.133 331.531 Q 423.43 332.586 422.961 332.82 L 422.961 332.82 L 422.961 332.82 Q 422.258 335.516 421.438 337.566 L 421.438 337.566 L 421.438 337.566 Q 420.617 339.617 419.797 341.492 L 419.797 341.492 L 419.797 341.492 Q 418.859 343.602 418.039 345.711 L 418.039 345.711 L 418.039 345.711 Q 417.219 347.82 416.633 350.867 L 416.633 350.867 L 416.633 350.867 Q 415.93 351.688 415.754 352.273 L 415.754 352.273 L 415.754 352.273 Q 415.578 352.859 415.344 353.445 L 415.344 353.445 L 415.344 353.445 Q 415.109 354.148 414.758 354.91 L 414.758 354.91 L 414.758 354.91 Q 414.406 355.672 413.703 356.258 L 413.703 356.258 L 413.703 356.258 Q 413.234 359.891 412.297 362.176 L 412.297 362.176 L 412.297 362.176 Q 411.359 364.461 410.422 366.688 L 410.422 366.688 L 410.422 366.688 Q 408.781 370.789 407.375 374.832 L 407.375 374.832 L 407.375 374.832 Q 405.969 378.875 405.734 384.031 L 405.734 384.031 L 405.734 384.031 Q 407.141 383.68 408.313 383.68 L 408.313 383.68 L 408.313 383.68 Q 409.836 383.68 411.242 384.148 L 411.242 384.148 L 411.242 384.148 Q 415.461 382.039 420.441 381.57 L 420.441 381.57 L 420.441 381.57 Q 425.422 381.102 430.344 380.984 L 430.344 380.984 L 430.344 380.984 Q 434.445 380.984 437.961 380.633 L 437.961 380.633 L 437.961 380.633 Q 439.133 381.453 439.484 381.512 L 439.484 381.512 L 439.484 381.512 Q 439.836 381.57 440.656 381.57 L 440.656 381.57 L 440.656 381.57 Q 441.008 381.57 441.359 381.57 L 441.359 381.57 L 441.359 381.57 Q 441.711 381.57 442.297 381.688 L 442.297 381.688 L 442.297 381.688 Q 443.938 383.328 445.461 383.973 L 445.461 383.973 L 445.461 383.973 Q 446.984 384.617 448.742 385.203 L 448.742 385.203 L 448.742 385.203 Q 450.266 385.789 451.73 386.434 L 451.73 386.434 L 451.73 386.434 Q 453.195 387.078 454.602 388.133 L 454.602 388.133 L 455.656 394.109 L 455.656 394.109 Q 456.594 395.398 456.477 395.867 L 456.477 395.867 L 456.477 395.867 Q 456.477 396.805 456.008 397.508 L 456.008 397.508 L 456.242 399.031 L 456.242 399.031 Q 454.016 399.5 453.313 400.027 L 453.313 400.027 L 453.313 400.027 Q 452.609 400.555 451.789 401.375 L 451.789 401.375 L 451.789 401.375 Q 450.5 401.492 449.328 401.492 L 449.328 401.492 L 449.328 401.492 Q 446.984 401.492 444.523 402.195 L 444.523 402.195 L 444.523 402.195 Q 441.008 400.906 436.789 400.906 L 436.789 400.906 L 436.789 400.906 Q 435.148 400.906 433.449 401.023 L 433.449 401.023 L 433.449 401.023 Q 431.75 401.141 430.109 401.375 L 430.109 401.375 L 430.109 401.375 Q 428.352 401.609 426.594 401.785 L 426.594 401.785 L 426.594 401.785 Q 424.836 401.961 423.078 401.961 L 423.078 401.961 L 423.078 401.961 Q 421.672 402.195 421.086 402.313 L 421.086 402.313 L 421.086 402.313 Q 420.5 402.43 419.914 402.664 L 419.914 402.664 L 419.914 402.664 Q 415.93 403.953 411.301 405.242 L 411.301 405.242 L 411.301 405.242 Q 406.672 406.531 401.984 406.531 L 401.984 406.531 L 401.984 406.531 Q 395.07 406.531 390.852 403.016 L 390.852 403.016 L 390.852 403.016 Q 390.383 401.961 390.148 401.609 L 390.148 401.609 L 390.148 401.609 Q 389.914 401.258 389.68 400.789 Z  M 524.328 339.148 L 524.328 339.148 L 524.328 339.148 Q 524.445 339.969 524.387 340.379 L 524.387 340.379 L 524.387 340.379 Q 524.328 340.789 524.27 341.141 L 524.27 341.141 L 524.27 341.141 Q 524.211 341.492 524.211 341.902 L 524.211 341.902 L 524.211 341.902 Q 524.211 342.313 524.445 343.133 L 524.445 343.133 L 524.445 343.133 Q 521.984 347.117 518.762 348.582 L 518.762 348.582 L 518.762 348.582 Q 515.539 350.047 511.789 350.691 L 511.789 350.691 L 511.789 350.691 Q 508.039 351.336 504.113 352.039 L 504.113 352.039 L 504.113 352.039 Q 500.188 352.742 496.32 355.086 L 496.32 355.086 L 496.32 355.086 Q 494.797 354.5 493.566 355.086 L 493.566 355.086 L 493.566 355.086 Q 492.336 355.672 489.992 355.438 L 489.992 355.438 L 489.992 355.438 Q 489.289 356.141 488.234 356.434 L 488.234 356.434 L 488.234 356.434 Q 487.18 356.727 486.125 357.078 L 486.125 357.078 L 486.125 357.078 Q 486.594 358.133 486.535 359.246 L 486.535 359.246 L 486.535 359.246 Q 486.477 360.359 486.828 361.063 L 486.828 361.063 L 486.828 361.063 Q 490.93 361.414 495.91 360.945 L 495.91 360.945 L 495.91 360.945 Q 500.891 360.477 505.695 360.359 L 505.695 360.359 L 505.695 360.359 Q 505.813 360.945 505.578 361.121 L 505.578 361.121 L 505.578 361.121 Q 505.344 361.297 505.461 361.766 L 505.461 361.766 L 505.461 361.766 Q 506.281 362.352 507.102 363.23 L 507.102 363.23 L 507.102 363.23 Q 507.922 364.109 508.742 364.93 L 508.742 364.93 L 508.742 364.93 Q 509.563 365.75 510.441 366.277 L 510.441 366.277 L 510.441 366.277 Q 511.32 366.805 512.492 366.688 L 512.492 366.688 L 512.492 366.688 Q 512.961 367.625 513.137 368.738 L 513.137 368.738 L 513.137 368.738 Q 513.313 369.852 512.844 371.023 L 512.844 371.023 L 512.844 371.023 Q 510.969 372.313 509.094 373.66 L 509.094 373.66 L 509.094 373.66 Q 507.219 375.008 505.168 376.063 L 505.168 376.063 L 505.168 376.063 Q 503.117 377.117 500.832 377.762 L 500.832 377.762 L 500.832 377.762 Q 498.547 378.406 495.734 378.289 L 495.734 378.289 L 495.734 378.289 Q 495.148 378.289 494.855 378.289 L 494.855 378.289 L 494.855 378.289 Q 494.563 378.289 494.094 377.938 L 494.094 377.938 L 494.094 377.938 Q 493.156 378.523 491.457 378.289 L 491.457 378.289 L 491.457 378.289 Q 489.758 378.055 488.82 378.641 L 488.82 378.641 L 488.82 378.641 Q 487.531 378.055 485.715 378.113 L 485.715 378.113 L 485.715 378.113 Q 483.898 378.172 482.492 377.703 L 482.492 377.703 L 482.492 377.703 Q 480.617 380.164 479.094 382.977 L 479.094 382.977 L 479.094 382.977 Q 477.57 385.789 476.398 388.953 L 476.398 388.953 L 476.398 388.953 Q 480.383 389.539 483.02 389.422 L 483.02 389.422 L 483.02 389.422 Q 485.656 389.305 488 389.012 L 488 389.012 L 488 389.012 Q 490.344 388.719 492.805 388.426 L 492.805 388.426 L 492.805 388.426 Q 495.266 388.133 499.016 388.25 L 499.016 388.25 L 499.016 388.25 Q 501.359 386.961 504.582 386.551 L 504.582 386.551 L 504.582 386.551 Q 507.805 386.141 510.5 385.203 L 510.5 385.203 L 510.5 385.203 Q 511.438 385.555 512.141 386.434 L 512.141 386.434 L 512.141 386.434 Q 512.844 387.313 513.488 388.074 L 513.488 388.074 L 513.488 388.074 Q 514.133 388.836 514.836 389.422 L 514.836 389.422 L 514.836 389.422 Q 515.539 390.008 516.594 389.891 L 516.594 389.891 L 516.594 389.891 Q 517.063 390.359 517.238 391.004 L 517.238 391.004 L 517.238 391.004 Q 517.414 391.648 517.531 392.234 L 517.531 392.234 L 517.531 392.234 Q 517.648 392.82 517.941 393.23 L 517.941 393.23 L 517.941 393.23 Q 518.234 393.641 518.938 393.523 L 518.938 393.523 L 518.938 393.523 Q 517.18 397.391 514.895 399.441 L 514.895 399.441 L 514.895 399.441 Q 512.609 401.492 509.68 402.547 L 509.68 402.547 L 509.68 402.547 Q 506.75 403.602 503.176 404.188 L 503.176 404.188 L 503.176 404.188 Q 499.602 404.773 495.266 405.594 L 495.266 405.594 L 495.266 405.594 Q 494.211 405.828 493.508 405.535 L 493.508 405.535 L 493.508 405.535 Q 492.805 405.242 491.867 405.242 L 491.867 405.242 L 491.867 405.242 Q 489.172 405.828 485.422 406.297 L 485.422 406.297 L 485.422 406.297 Q 481.672 406.766 477.805 406.648 L 477.805 406.648 L 477.805 406.648 Q 473.938 406.531 470.422 405.652 L 470.422 405.652 L 470.422 405.652 Q 466.906 404.773 464.68 402.547 L 464.68 402.547 L 464.68 402.547 Q 463.742 401.727 463.449 400.613 L 463.449 400.613 L 463.449 400.613 Q 463.156 399.5 461.867 398.914 L 461.867 398.914 L 461.867 398.914 Q 461.75 397.391 461.398 395.516 L 461.398 395.516 L 461.398 395.516 Q 461.047 393.641 460.695 391.59 L 460.695 391.59 L 460.695 391.59 Q 460.344 389.539 460.168 387.547 L 460.168 387.547 L 460.168 387.547 Q 459.992 385.555 460.344 383.914 L 460.344 383.914 L 460.344 383.914 Q 460.695 382.156 461.809 380.75 L 461.809 380.75 L 461.809 380.75 Q 462.922 379.344 462.57 377.703 L 462.57 377.703 L 462.57 377.703 Q 463.156 377.586 463.273 377.059 L 463.273 377.059 L 463.273 377.059 Q 463.391 376.531 464.211 376.648 L 464.211 376.648 L 464.211 376.648 Q 464.914 374.539 465.734 372.664 L 465.734 372.664 L 465.734 372.664 Q 466.555 370.789 467.434 369.031 L 467.434 369.031 L 467.434 369.031 Q 468.313 367.273 469.191 365.457 L 469.191 365.457 L 469.191 365.457 Q 470.07 363.641 470.891 361.414 L 470.891 361.414 L 470.891 361.414 Q 469.25 359.891 468.488 358.074 L 468.488 358.074 L 468.488 358.074 Q 467.727 356.258 467.375 354.441 L 467.375 354.441 L 467.375 354.441 Q 467.023 352.625 466.789 350.691 L 466.789 350.691 L 466.789 350.691 Q 466.555 348.758 465.969 346.766 L 465.969 346.766 L 465.969 346.766 Q 467.141 345.008 468.84 343.895 L 468.84 343.895 L 468.84 343.895 Q 470.539 342.781 472.531 342.078 L 472.531 342.078 L 472.531 342.078 Q 474.523 341.375 476.867 340.906 L 476.867 340.906 L 476.867 340.906 Q 479.211 340.438 481.789 339.852 L 481.789 339.852 L 481.789 339.852 Q 486.477 338.328 490.168 337.508 L 490.168 337.508 L 490.168 337.508 Q 493.859 336.688 497.434 336.16 L 497.434 336.16 L 497.434 336.16 Q 501.008 335.633 504.875 335.164 L 504.875 335.164 L 504.875 335.164 Q 508.742 334.695 513.664 333.758 L 513.664 333.758 L 513.664 333.758 Q 514.719 334.813 515.656 334.813 L 515.656 334.813 L 515.656 334.813 Q 516.125 333.758 516.77 334.168 L 516.77 334.168 L 516.77 334.168 Q 517.414 334.578 517.297 333.523 L 517.297 333.523 L 517.297 333.523 Q 518.469 335.516 520.285 336.863 L 520.285 336.863 L 520.285 336.863 Q 522.102 338.211 524.328 339.148 Z  M 588.195 348.758 L 588.195 348.758 L 588.195 348.758 Q 585.266 348.758 581.867 349.168 L 581.867 349.168 L 581.867 349.168 Q 578.469 349.578 575.188 350.047 L 575.188 350.047 L 575.188 350.047 Q 572.844 350.398 570.676 350.633 L 570.676 350.633 L 570.676 350.633 Q 568.508 350.867 566.75 350.984 L 566.75 350.984 L 566.75 350.984 Q 565.93 353.563 565.109 355.555 L 565.109 355.555 L 565.109 355.555 Q 564.289 357.547 563.352 359.422 L 563.352 359.422 L 563.352 359.422 Q 562.414 361.414 561.652 363.465 L 561.652 363.465 L 561.652 363.465 Q 560.891 365.516 560.188 367.859 L 560.188 367.859 L 560.188 367.859 Q 559.016 369.734 558.254 371.316 L 558.254 371.316 L 558.254 371.316 Q 557.492 372.898 557.023 374.891 L 557.023 374.891 L 557.023 374.891 Q 555.617 376.648 554.914 378.582 L 554.914 378.582 L 554.914 378.582 Q 554.211 380.516 553.859 381.922 L 553.859 381.922 L 553.391 383.328 L 553.391 383.328 Q 552.688 384.031 552.57 384.441 L 552.57 384.441 L 552.57 384.441 Q 552.453 384.852 551.984 385.203 L 551.984 385.203 L 551.984 385.203 Q 551.867 386.492 551.164 387.781 L 551.164 387.781 L 551.164 387.781 Q 550.93 388.367 550.813 388.895 L 550.813 388.895 L 550.813 388.895 Q 550.695 389.422 550.695 389.656 L 550.695 389.656 L 550.695 389.656 Q 550.695 390.828 550.109 391.18 L 550.109 391.18 L 550.109 391.18 Q 550.227 391.766 550.109 392.41 L 550.109 392.41 L 550.109 392.41 Q 549.992 393.055 549.875 393.641 L 549.875 393.641 L 549.875 393.641 Q 549.523 395.047 549.641 395.867 L 549.641 395.867 L 549.641 395.867 Q 549.992 396.336 550.285 396.688 L 550.285 396.688 L 550.285 396.688 Q 550.578 397.039 550.695 397.625 L 550.695 397.625 L 550.695 397.625 Q 551.398 398.094 551.75 398.211 L 551.75 398.211 L 551.75 398.211 Q 552.219 398.563 553.156 399.031 L 553.156 399.031 L 554.211 400.203 L 554.211 400.203 Q 554.797 403.602 553.156 405.594 L 553.156 405.594 L 553.156 405.594 Q 551.398 407.82 547.18 407.82 L 547.18 407.82 L 545.773 407.82 L 545.773 407.82 Q 545.188 407.234 545.07 406.883 L 545.07 406.883 L 545.07 406.883 Q 544.133 406.531 543.547 406.297 L 543.547 406.297 L 543.547 406.297 Q 542.961 406.063 542.492 405.359 L 542.492 405.359 L 542.492 405.359 Q 540.969 404.656 540.031 404.188 L 540.031 404.188 L 538.977 403.602 L 538.977 403.602 Q 538.977 402.313 538.977 402.195 L 538.977 402.195 L 538.977 402.195 Q 538.156 401.141 537.746 399.852 L 537.746 399.852 L 537.746 399.852 Q 537.336 398.563 537.102 397.273 L 537.102 397.273 L 537.102 397.273 Q 536.867 396.219 536.574 395.281 L 536.574 395.281 L 536.574 395.281 Q 536.281 394.344 535.813 393.641 L 535.813 393.641 L 535.813 393.641 Q 535.578 386.844 537.102 382.156 L 537.102 382.156 L 537.102 382.156 Q 538.625 377.469 540.266 373.133 L 540.266 373.133 L 540.266 373.133 Q 541.203 370.789 542.141 368.387 L 542.141 368.387 L 542.141 368.387 Q 543.078 365.984 543.781 363.406 L 543.781 363.406 L 544.836 362.234 L 544.836 362.234 Q 545.656 360.359 546.184 359.129 L 546.184 359.129 L 546.184 359.129 Q 546.711 357.898 547.297 356.609 L 547.297 356.609 L 547.297 356.609 Q 547.648 355.789 547.941 355.027 L 547.941 355.027 L 547.941 355.027 Q 548.234 354.266 548.469 353.68 L 548.469 353.68 L 548.469 353.68 Q 547.766 353.68 547.18 353.738 L 547.18 353.738 L 547.18 353.738 Q 546.594 353.797 546.008 353.914 L 546.008 353.914 L 546.008 353.914 Q 545.305 354.031 544.719 354.09 L 544.719 354.09 L 544.719 354.09 Q 544.133 354.148 543.547 354.148 L 543.547 354.148 L 543.547 354.148 Q 542.727 354.148 542.375 354.031 L 542.375 354.031 L 542.375 354.031 Q 541.086 354.617 539.563 354.617 L 539.563 354.617 L 538.391 354.617 L 538.391 354.617 Q 538.039 354.617 537.746 354.559 L 537.746 354.559 L 537.746 354.559 Q 537.453 354.5 537.219 354.5 L 537.219 354.5 L 537.219 354.5 Q 536.047 354.5 535.344 354.852 L 535.344 354.852 L 535.344 354.852 Q 533.938 354.852 532.648 354.852 L 532.648 354.852 L 531.477 354.852 L 531.477 354.852 Q 531.242 354.852 530.891 354.91 L 530.891 354.91 L 530.891 354.91 Q 530.539 354.969 530.305 354.969 L 530.305 354.969 L 530.305 354.969 Q 529.484 354.969 528.547 354.793 L 528.547 354.793 L 528.547 354.793 Q 527.609 354.617 526.555 354.031 L 526.555 354.031 L 526.555 354.031 Q 525.148 352.156 524.68 352.039 L 524.68 352.039 L 523.625 350.633 L 523.625 350.633 Q 523.508 349.93 523.273 349.285 L 523.273 349.285 L 523.273 349.285 Q 523.039 348.641 522.805 347.82 L 522.805 347.82 L 522.805 347.82 Q 522.336 346.648 521.926 345.301 L 521.926 345.301 L 521.926 345.301 Q 521.516 343.953 521.516 342.078 L 521.516 342.078 L 521.516 342.078 Q 521.633 341.141 521.984 340.672 L 521.984 340.672 L 521.984 340.672 Q 522.336 340.203 522.57 339.852 L 522.57 339.852 L 522.922 338.094 L 524.445 338.211 L 527.727 338.211 L 527.727 338.211 Q 531.477 338.211 535.344 337.918 L 535.344 337.918 L 535.344 337.918 Q 539.211 337.625 543.313 337.273 L 543.313 337.273 L 543.313 337.273 Q 545.656 337.039 548.059 336.805 L 548.059 336.805 L 548.059 336.805 Q 550.461 336.57 553.039 336.336 L 553.039 336.336 L 553.039 336.336 Q 553.508 335.281 553.977 334.344 L 553.977 334.344 L 555.148 333.758 L 555.148 333.758 Q 557.258 333.641 558.137 334.285 L 558.137 334.285 L 558.137 334.285 Q 559.016 334.93 559.602 335.516 L 559.602 335.516 L 559.602 335.516 Q 562.18 335.281 564.816 334.988 L 564.816 334.988 L 564.816 334.988 Q 567.453 334.695 570.148 334.227 L 570.148 334.227 L 570.148 334.227 Q 574.133 333.641 578.176 333.172 L 578.176 333.172 L 578.176 333.172 Q 582.219 332.703 585.969 332.703 L 585.969 332.703 L 585.969 332.703 Q 587.609 332.703 589.133 332.82 L 589.133 332.82 L 589.133 332.82 Q 590.656 332.938 591.945 333.172 L 591.945 333.172 L 593.117 333.992 L 593.117 333.992 Q 593.469 334.695 594.113 335.281 L 594.113 335.281 L 594.113 335.281 Q 594.758 335.867 595.461 336.453 L 595.461 336.453 L 595.461 336.453 Q 596.867 337.742 598.273 339.5 L 598.273 339.5 L 598.273 339.5 Q 599.68 341.258 599.328 344.656 L 599.328 344.656 L 599.328 344.656 Q 598.391 346.063 597.922 346.297 L 597.922 346.297 L 596.867 347.703 L 595.695 347.586 L 595.695 347.586 Q 594.992 347.586 594.406 347.762 L 594.406 347.762 L 594.406 347.762 Q 593.82 347.938 593.234 348.172 L 593.234 348.172 L 593.234 348.172 Q 592.766 348.406 592.297 348.582 L 592.297 348.582 L 592.297 348.582 Q 591.828 348.758 591.242 348.875 L 591.242 348.875 L 591.242 348.875 Q 590.188 348.875 589.543 348.816 L 589.543 348.816 L 589.543 348.816 Q 588.898 348.758 588.195 348.758 Z  M 608.82 318.523 L 608.82 318.523 L 608.82 318.523 Q 610.227 319.695 611.516 320.633 L 611.516 320.633 L 611.516 320.633 Q 612.805 321.57 613.859 322.625 L 613.859 322.625 L 613.859 322.625 Q 614.914 323.68 615.441 325.027 L 615.441 325.027 L 615.441 325.027 Q 615.969 326.375 615.734 328.367 L 615.734 328.367 L 615.734 328.367 Q 614.797 329.422 613.508 332.293 L 613.508 332.293 L 613.508 332.293 Q 612.219 335.164 610.344 340.555 L 610.344 340.555 L 610.344 340.555 Q 609.406 343.25 608.527 347.879 L 608.527 347.879 L 608.527 347.879 Q 607.648 352.508 606.418 357.488 L 606.418 357.488 L 606.418 357.488 Q 605.188 362.469 603.43 366.863 L 603.43 366.863 L 603.43 366.863 Q 601.672 371.258 598.977 373.25 L 598.977 373.25 L 598.977 373.25 Q 597.922 372.898 596.75 372.664 L 596.75 372.664 L 596.75 372.664 Q 595.578 372.43 594.641 371.961 L 594.641 371.961 L 594.641 371.961 Q 593.703 371.492 593.176 370.613 L 593.176 370.613 L 593.176 370.613 Q 592.648 369.734 592.766 368.094 L 592.766 368.094 L 592.766 368.094 Q 590.07 366.57 589.309 364.402 L 589.309 364.402 L 589.309 364.402 Q 588.547 362.234 588.664 359.832 L 588.664 359.832 L 588.664 359.832 Q 588.781 357.43 589.191 355.027 L 589.191 355.027 L 589.191 355.027 Q 589.602 352.625 589.25 350.633 L 589.25 350.633 L 589.25 350.633 Q 590.422 345.828 591.77 340.262 L 591.77 340.262 L 591.77 340.262 Q 593.117 334.695 594.172 329.539 L 594.172 329.539 L 594.172 329.539 Q 595.227 328.484 595.871 326.902 L 595.871 326.902 L 595.871 326.902 Q 596.516 325.32 596.984 323.445 L 596.984 323.445 L 596.984 323.445 Q 597.453 321.57 597.98 319.754 L 597.98 319.754 L 597.98 319.754 Q 598.508 317.938 599.445 316.297 L 599.445 316.297 L 599.445 316.297 Q 600.031 316.883 601.438 316.824 L 601.438 316.824 L 601.438 316.824 Q 602.844 316.766 603.195 316.063 L 603.195 316.063 L 603.195 316.063 Q 603.898 317.234 605.773 317.996 L 605.773 317.996 L 605.773 317.996 Q 607.648 318.758 608.82 318.523 Z  M 612.805 352.391 L 612.805 352.391 L 612.805 352.391 Q 613.625 349.93 615.441 348.172 L 615.441 348.172 L 615.441 348.172 Q 617.258 346.414 619.426 345.184 L 619.426 345.184 L 619.426 345.184 Q 621.594 343.953 623.938 343.133 L 623.938 343.133 L 623.938 343.133 Q 626.281 342.313 628.391 341.727 L 628.391 341.727 L 628.391 341.727 Q 633.078 339.734 638.41 337.918 L 638.41 337.918 L 638.41 337.918 Q 643.742 336.102 649.309 334.695 L 649.309 334.695 L 649.309 334.695 Q 654.875 333.289 660.734 332.879 L 660.734 332.879 L 660.734 332.879 Q 666.594 332.469 673.039 334.344 L 673.039 334.344 L 673.039 334.344 Q 673.391 335.516 674.094 336.57 L 674.094 336.57 L 674.094 336.57 Q 674.797 337.625 675.559 338.68 L 675.559 338.68 L 675.559 338.68 Q 676.32 339.734 676.906 340.73 L 676.906 340.73 L 676.906 340.73 Q 677.492 341.727 677.609 342.781 L 677.609 342.781 L 677.609 342.781 Q 678.781 343.836 679.484 345.066 L 679.484 345.066 L 679.484 345.066 Q 680.188 346.297 679.719 348.289 L 679.719 348.289 L 679.719 348.289 Q 678.547 349.227 677.434 349.988 L 677.434 349.988 L 677.434 349.988 Q 676.32 350.75 675.031 351.336 L 675.031 351.336 L 675.031 351.336 Q 670.695 350.281 666.242 350.633 L 666.242 350.633 L 666.242 350.633 Q 661.789 350.984 658.273 351.219 L 658.273 351.219 L 658.273 351.219 Q 657.219 350.164 655.754 350.164 L 655.754 350.164 L 655.754 350.164 Q 654.289 350.164 652.707 350.633 L 652.707 350.633 L 652.707 350.633 Q 651.125 351.102 649.543 351.57 L 649.543 351.57 L 649.543 351.57 Q 647.961 352.039 646.555 351.805 L 646.555 351.805 L 646.555 351.805 Q 645.383 352.742 643.684 353.035 L 643.684 353.035 L 643.684 353.035 Q 641.984 353.328 639.992 353.563 L 639.992 353.563 L 639.992 353.563 Q 639.875 354.148 640.227 354.324 L 640.227 354.324 L 640.227 354.324 Q 640.578 354.5 640.344 355.086 L 640.344 355.086 L 640.344 355.086 Q 641.047 355.906 642.16 356.258 L 642.16 356.258 L 642.16 356.258 Q 643.273 356.609 644.504 356.961 L 644.504 356.961 L 644.504 356.961 Q 645.734 357.313 646.672 357.84 L 646.672 357.84 L 646.672 357.84 Q 647.609 358.367 647.961 359.539 L 647.961 359.539 L 647.961 359.539 Q 649.719 359.539 651.008 360.359 L 651.008 360.359 L 651.008 360.359 Q 652.297 361.18 653.117 362.352 L 653.117 362.352 L 653.117 362.352 Q 653.938 363.523 654.348 364.871 L 654.348 364.871 L 654.348 364.871 Q 654.758 366.219 654.758 367.273 L 654.758 367.273 L 654.758 367.273 Q 655.109 368.211 655.578 368.094 L 655.578 368.094 L 655.578 368.094 Q 656.047 367.977 656.633 368.563 L 656.633 368.563 L 656.633 368.563 Q 656.984 370.086 658.391 371.668 L 658.391 371.668 L 658.391 371.668 Q 659.797 373.25 660.617 375.125 L 660.617 375.125 L 660.617 375.125 Q 660.852 378.055 660.969 380.34 L 660.969 380.34 L 660.969 380.34 Q 661.086 382.625 660.148 384.969 L 660.148 384.969 L 660.148 384.969 Q 658.391 389.305 655.285 392.703 L 655.285 392.703 L 655.285 392.703 Q 652.18 396.102 648.254 398.738 L 648.254 398.738 L 648.254 398.738 Q 644.328 401.375 639.875 403.25 L 639.875 403.25 L 639.875 403.25 Q 635.422 405.125 631.203 406.414 L 631.203 406.414 L 631.203 406.414 Q 630.734 406.297 630.266 406.414 L 630.266 406.414 L 630.266 406.414 Q 629.797 406.531 630.031 405.828 L 630.031 405.828 L 630.031 405.828 Q 629.094 406.648 627.98 406.883 L 627.98 406.883 L 627.98 406.883 Q 626.867 407.117 625.578 407.059 L 625.578 407.059 L 625.578 407.059 Q 624.289 407 622.941 406.883 L 622.941 406.883 L 622.941 406.883 Q 621.594 406.766 620.422 407 L 620.422 407 L 620.422 407 Q 619.602 406.18 618.957 405.418 L 618.957 405.418 L 618.957 405.418 Q 618.313 404.656 617.961 403.484 L 617.961 403.484 L 617.961 403.484 Q 617.375 403.484 617.434 402.898 L 617.434 402.898 L 617.434 402.898 Q 617.492 402.313 617.023 402.313 L 617.023 402.313 L 617.023 402.313 Q 617.727 401.141 617.668 400.965 L 617.668 400.965 L 617.668 400.965 Q 617.609 400.789 617.316 400.672 L 617.316 400.672 L 617.316 400.672 Q 617.023 400.555 616.789 400.379 L 616.789 400.379 L 616.789 400.379 Q 616.555 400.203 616.672 399.852 L 616.672 399.852 L 616.672 399.852 Q 617.141 398.914 617.023 397.684 L 617.023 397.684 L 617.023 397.684 Q 616.906 396.453 616.789 395.164 L 616.789 395.164 L 616.789 395.164 Q 616.672 393.875 616.965 392.703 L 616.965 392.703 L 616.965 392.703 Q 617.258 391.531 618.664 390.828 L 618.664 390.828 L 618.664 390.828 Q 622.648 391.297 626.223 390.535 L 626.223 390.535 L 626.223 390.535 Q 629.797 389.773 632.961 388.367 L 632.961 388.367 L 632.961 388.367 Q 636.125 386.961 638.996 385.32 L 638.996 385.32 L 638.996 385.32 Q 641.867 383.68 644.68 382.391 L 644.68 382.391 L 644.68 382.391 Q 645.031 381.336 645.676 380.633 L 645.676 380.633 L 645.676 380.633 Q 646.32 379.93 647.023 379.344 L 647.023 379.344 L 647.023 379.344 Q 647.727 378.758 648.313 378.055 L 648.313 378.055 L 648.313 378.055 Q 648.898 377.352 649.133 376.297 L 649.133 376.297 L 649.133 376.297 Q 649.25 375.477 648.723 375.301 L 648.723 375.301 L 648.723 375.301 Q 648.195 375.125 648.195 374.422 L 648.195 374.422 L 646.906 374.07 L 646.906 374.07 Q 644.68 372.781 641.867 371.902 L 641.867 371.902 L 641.867 371.902 Q 639.055 371.023 637.063 369.969 L 637.063 369.969 L 637.063 369.969 Q 635.773 370.672 634.66 370.32 L 634.66 370.32 L 634.66 370.32 Q 633.547 369.969 631.789 369.617 L 631.789 369.617 L 631.789 369.617 Q 627.805 369.383 624.113 368.797 L 624.113 368.797 L 624.113 368.797 Q 620.422 368.211 617.023 366.688 L 617.023 366.688 L 617.023 366.688 Q 616.789 366.102 616.438 365.633 L 616.438 365.633 L 616.438 365.633 Q 616.086 365.164 615.148 365.398 L 615.148 365.398 L 615.148 365.398 Q 614.445 364.461 613.742 363.582 L 613.742 363.582 L 613.742 363.582 Q 613.039 362.703 612.453 361.648 L 612.453 361.648 L 612.453 361.648 Q 612.688 360.242 612.805 359.246 L 612.805 359.246 L 612.805 359.246 Q 612.922 358.25 612.102 357.313 L 612.102 357.313 L 612.102 357.313 Q 612.57 355.789 612.805 354.852 L 612.805 354.852 L 612.805 354.852 Q 613.039 353.914 612.805 352.391 Z " fill-rule="evenodd" fill="rgb(0,0,0)"/><path d=" M 393.898 521.93 L 393.898 521.93 L 393.898 521.93 Q 390.5 519.352 388.332 515.484 L 388.332 515.484 L 388.332 515.484 Q 386.164 511.617 384.934 507.281 L 384.934 507.281 L 384.934 507.281 Q 383.703 502.945 383.293 498.316 L 383.293 498.316 L 383.293 498.316 Q 382.883 493.688 383 489.469 L 383 489.469 L 383 489.469 Q 384.055 486.305 385.578 483.668 L 385.578 483.668 L 385.578 483.668 Q 387.102 481.031 388.977 478.629 L 388.977 478.629 L 388.977 478.629 Q 390.852 476.227 392.902 474.059 L 392.902 474.059 L 392.902 474.059 Q 394.953 471.891 396.945 469.664 L 396.945 469.664 L 396.945 469.664 Q 397.648 469.664 398.234 470.016 L 398.234 470.016 L 398.234 470.016 Q 398.703 468.727 399.641 467.789 L 399.641 467.789 L 399.641 467.789 Q 400.578 466.852 401.633 466.09 L 401.633 466.09 L 401.633 466.09 Q 402.688 465.328 403.742 464.566 L 403.742 464.566 L 403.742 464.566 Q 404.797 463.805 405.5 462.75 L 405.5 462.75 L 405.5 462.75 Q 408.43 462.047 410.715 460.758 L 410.715 460.758 L 410.715 460.758 Q 413 459.469 415.109 457.945 L 415.109 457.945 L 415.109 457.945 Q 417.219 456.422 419.445 455.133 L 419.445 455.133 L 419.445 455.133 Q 421.672 453.844 424.602 453.141 L 424.602 453.141 L 424.602 453.141 Q 425.656 451.969 427.238 451.148 L 427.238 451.148 L 427.238 451.148 Q 428.82 450.328 430.402 449.625 L 430.402 449.625 L 430.402 449.625 Q 431.984 448.922 433.449 448.102 L 433.449 448.102 L 433.449 448.102 Q 434.914 447.281 435.852 445.875 L 435.852 445.875 L 435.852 445.875 Q 436.555 446.813 437.844 446.52 L 437.844 446.52 L 437.844 446.52 Q 439.133 446.227 440.188 445.875 L 440.188 445.875 L 440.188 445.875 Q 440.891 445.758 441.359 446.109 L 441.359 446.109 L 441.359 446.109 Q 441.828 446.461 442.238 446.871 L 442.238 446.871 L 442.238 446.871 Q 442.648 447.281 442.941 447.398 L 442.941 447.398 L 442.941 447.398 Q 443.234 447.516 443.586 446.695 L 443.586 446.695 L 443.586 446.695 Q 444.523 446.813 444.113 447.516 L 444.113 447.516 L 444.113 447.516 Q 443.703 448.219 443.586 448.453 L 443.586 448.453 L 443.586 448.453 Q 444.758 448.219 445.52 448.863 L 445.52 448.863 L 445.52 448.863 Q 446.281 449.508 447.922 449.742 L 447.922 449.742 L 447.922 449.742 Q 448.508 450.328 448.273 450.68 L 448.273 450.68 L 448.273 450.68 Q 448.039 451.031 447.922 451.852 L 447.922 451.852 L 447.922 451.852 Q 452.141 453.141 453.313 455.895 L 453.313 455.895 L 453.313 455.895 Q 454.484 458.648 453.547 461.637 L 453.547 461.637 L 453.547 461.637 Q 452.609 464.625 450.09 467.145 L 450.09 467.145 L 450.09 467.145 Q 447.57 469.664 444.523 470.484 L 444.523 470.484 L 444.523 470.484 Q 440.891 471.422 437.785 472.359 L 437.785 472.359 L 437.785 472.359 Q 434.68 473.297 431.809 474.469 L 431.809 474.469 L 431.809 474.469 Q 428.938 475.641 426.418 477.223 L 426.418 477.223 L 426.418 477.223 Q 423.898 478.805 422.023 480.914 L 422.023 480.914 L 422.023 480.914 Q 418.742 481.852 416.105 483.492 L 416.105 483.492 L 416.105 483.492 Q 413.469 485.133 411.184 487.125 L 411.184 487.125 L 411.184 487.125 Q 408.898 489.117 406.789 491.285 L 406.789 491.285 L 406.789 491.285 Q 404.68 493.453 402.57 495.563 L 402.57 495.563 L 402.57 495.563 Q 402.57 497.555 401.867 498.609 L 401.867 498.609 L 401.867 498.609 Q 401.164 499.664 400.344 500.719 L 400.344 500.719 L 400.344 500.719 Q 400.578 502.945 401.34 504.527 L 401.34 504.527 L 401.34 504.527 Q 402.102 506.109 402.922 507.75 L 402.922 507.75 L 402.922 507.75 Q 412.297 510.563 422.785 511.207 L 422.785 511.207 L 422.785 511.207 Q 433.273 511.852 443.586 511.969 L 443.586 511.969 L 443.586 511.969 Q 444.641 513.375 445.988 514.605 L 445.988 514.605 L 445.988 514.605 Q 447.336 515.836 448.449 517.125 L 448.449 517.125 L 448.449 517.125 Q 449.563 518.414 450.207 520.113 L 450.207 520.113 L 450.207 520.113 Q 450.852 521.813 450.5 524.156 L 450.5 524.156 L 450.5 524.156 Q 448.508 526.148 446.164 527.965 L 446.164 527.965 L 446.164 527.965 Q 443.82 529.781 441.477 531.539 L 441.477 531.539 L 441.477 531.539 Q 440.422 531.656 438.957 531.539 L 438.957 531.539 L 438.957 531.539 Q 437.492 531.422 435.91 531.422 L 435.91 531.422 L 435.91 531.422 Q 434.328 531.422 432.746 531.598 L 432.746 531.598 L 432.746 531.598 Q 431.164 531.773 429.758 532.359 L 429.758 532.359 L 429.758 532.359 Q 422.375 532.125 414.641 530.543 L 414.641 530.543 L 414.641 530.543 Q 406.906 528.961 400.344 526.734 L 400.344 526.734 L 400.344 526.734 Q 399.055 525.211 397.648 523.863 L 397.648 523.863 L 397.648 523.863 Q 396.242 522.516 393.898 521.93 Z  M 524.68 496.969 L 524.68 496.969 L 524.68 496.969 Q 524.563 498.375 524.914 499.664 L 524.914 499.664 L 524.914 499.664 Q 525.266 500.953 525.793 502.184 L 525.793 502.184 L 525.793 502.184 Q 526.32 503.414 526.789 504.703 L 526.789 504.703 L 526.789 504.703 Q 527.258 505.992 527.492 507.281 L 527.492 507.281 L 527.492 507.281 Q 527.727 508.922 527.492 510.855 L 527.492 510.855 L 527.492 510.855 Q 527.258 512.789 526.672 514.605 L 526.672 514.605 L 526.672 514.605 Q 526.086 516.422 525.148 517.887 L 525.148 517.887 L 525.148 517.887 Q 524.211 519.352 522.922 520.055 L 522.922 520.055 L 522.922 520.055 Q 521.281 522.164 518.938 523.336 L 518.938 523.336 L 518.938 523.336 Q 516.594 524.508 514.602 526.148 L 514.602 526.148 L 514.602 526.148 Q 513.313 526.969 511.73 527.32 L 511.73 527.32 L 511.73 527.32 Q 510.148 527.672 508.508 528.023 L 508.508 528.023 L 508.508 528.023 Q 507.219 528.727 505.461 529.488 L 505.461 529.488 L 505.461 529.488 Q 503.703 530.25 501.828 530.895 L 501.828 530.895 L 501.828 530.895 Q 499.953 531.539 498.078 531.832 L 498.078 531.832 L 498.078 531.832 Q 496.203 532.125 494.797 532.008 L 494.797 532.008 L 494.797 532.008 Q 491.281 533.297 487.941 533.707 L 487.941 533.707 L 487.941 533.707 Q 484.602 534.117 480.148 533.18 L 480.148 533.18 L 480.148 533.18 Q 475.93 533.766 472.355 532.828 L 472.355 532.828 L 472.355 532.828 Q 468.781 531.891 466.027 529.84 L 466.027 529.84 L 466.027 529.84 Q 463.273 527.789 461.223 524.918 L 461.223 524.918 L 461.223 524.918 Q 459.172 522.047 457.883 518.883 L 457.883 518.883 L 457.883 518.883 Q 456.945 512.203 458.352 506.754 L 458.352 506.754 L 458.352 506.754 Q 459.758 501.305 462.395 496.676 L 462.395 496.676 L 462.395 496.676 Q 465.031 492.047 468.43 488.121 L 468.43 488.121 L 468.43 488.121 Q 471.828 484.195 474.992 480.445 L 474.992 480.445 L 474.992 480.445 Q 475.695 480.68 476.105 480.387 L 476.105 480.387 L 476.105 480.387 Q 476.516 480.094 476.867 479.566 L 476.867 479.566 L 476.867 479.566 Q 477.219 479.039 477.629 478.57 L 477.629 478.57 L 477.629 478.57 Q 478.039 478.102 478.625 477.984 L 478.625 477.984 L 478.625 477.984 Q 479.445 476.227 481.027 475.348 L 481.027 475.348 L 481.027 475.348 Q 482.609 474.469 483.547 472.828 L 483.547 472.828 L 483.547 472.828 Q 484.602 472.594 485.305 472.125 L 485.305 472.125 L 485.305 472.125 Q 486.008 471.656 486.652 471.07 L 486.652 471.07 L 486.652 471.07 Q 487.297 470.484 488 469.957 L 488 469.957 L 488 469.957 Q 488.703 469.43 489.641 469.195 L 489.641 469.195 L 489.641 467.906 L 489.641 467.906 Q 491.75 466.969 492.746 465.738 L 492.746 465.738 L 492.746 465.738 Q 493.742 464.508 495.148 462.75 L 495.148 462.75 L 495.148 462.75 Q 496.203 462.633 496.848 462.633 L 496.848 462.633 L 496.848 462.633 Q 497.492 462.633 498.781 462.398 L 498.781 462.398 L 498.781 462.398 Q 499.719 460.758 500.48 459.938 L 500.48 459.938 L 500.48 459.938 Q 501.242 459.117 502.766 458.18 L 502.766 458.18 L 502.766 458.18 Q 504.172 458.883 505.871 459.117 L 505.871 459.117 L 505.871 459.117 Q 507.57 459.352 508.859 460.641 L 508.859 460.641 L 508.859 460.641 Q 508.977 461.813 509.563 462.457 L 509.563 462.457 L 509.563 462.457 Q 510.148 463.102 510.852 463.629 L 510.852 463.629 L 510.852 463.629 Q 511.555 464.156 512.199 464.742 L 512.199 464.742 L 512.199 464.742 Q 512.844 465.328 513.078 466.383 L 513.078 466.383 L 513.078 466.383 Q 513.547 466.5 513.723 466.266 L 513.723 466.266 L 513.723 466.266 Q 513.898 466.031 514.367 466.148 L 514.367 466.148 L 514.367 466.148 Q 514.719 467.789 515.188 468.316 L 515.188 468.316 L 515.188 468.316 Q 515.656 468.844 516.125 470.367 L 516.125 470.367 L 516.125 470.367 Q 515.539 471.539 515.246 472.77 L 515.246 472.77 L 515.246 472.77 Q 514.953 474 513.781 474.586 L 513.781 474.586 L 513.781 474.586 Q 513.664 475.406 514.25 475.465 L 514.25 475.465 L 514.25 475.465 Q 514.836 475.523 514.953 476.109 L 514.953 476.109 L 514.953 476.109 Q 515.07 477.164 514.602 477.633 L 514.602 477.633 L 514.602 477.633 Q 517.414 482.203 519.641 487.301 L 519.641 487.301 L 519.641 487.301 Q 521.867 492.398 524.68 496.969 Z  M 510.031 508.102 L 510.031 508.102 L 510.031 508.102 Q 510.5 506.813 511.262 505.992 L 511.262 505.992 L 511.262 505.992 Q 512.023 505.172 512.141 503.531 L 512.141 503.531 L 512.141 503.531 Q 511.555 502.594 511.438 502.066 L 511.438 502.066 L 511.438 502.066 Q 511.32 501.539 511.32 500.367 L 511.32 500.367 L 511.32 500.367 Q 508.742 496.734 506.867 492.574 L 506.867 492.574 L 506.867 492.574 Q 504.992 488.414 502.648 484.781 L 502.648 484.781 L 502.648 484.781 Q 502.414 485.25 501.828 485.719 L 501.828 485.719 L 501.828 485.719 Q 501.242 486.188 500.539 485.484 L 500.539 485.484 L 500.539 485.484 Q 500.305 486.422 499.719 486.832 L 499.719 486.832 L 499.719 486.832 Q 499.133 487.242 498.43 487.184 L 498.43 487.184 L 498.43 487.184 Q 497.727 487.125 496.965 486.832 L 496.965 486.832 L 496.965 486.832 Q 496.203 486.539 495.617 486.07 L 495.617 486.07 L 495.617 486.07 Q 492.219 488.766 488.82 491.344 L 488.82 491.344 L 488.82 491.344 Q 485.422 493.922 482.727 497.32 L 482.727 497.32 L 482.727 497.32 Q 482.258 497.555 482.141 497.496 L 482.141 497.496 L 482.141 497.496 Q 482.023 497.438 481.438 497.672 L 481.438 497.672 L 481.438 497.672 Q 480.5 499.898 479.152 501.715 L 479.152 501.715 L 479.152 501.715 Q 477.805 503.531 476.516 505.406 L 476.516 505.406 L 476.516 505.406 Q 475.227 507.281 474.289 509.391 L 474.289 509.391 L 474.289 509.391 Q 473.352 511.5 473.234 514.313 L 473.234 514.313 L 473.234 514.313 Q 475.227 515.953 477.922 516.305 L 477.922 516.305 L 477.922 516.305 Q 480.617 516.656 483.488 516.422 L 483.488 516.422 L 483.488 516.422 Q 486.359 516.188 489.113 515.66 L 489.113 515.66 L 489.113 515.66 Q 491.867 515.133 494.211 515.133 L 494.211 515.133 L 494.211 515.133 Q 499.133 513.961 502.648 512.027 L 502.648 512.027 L 502.648 512.027 Q 506.164 510.094 510.031 508.102 Z  M 555.852 510.797 L 555.852 510.797 L 555.852 510.797 Q 554.797 511.031 554.328 512.027 L 554.328 512.027 L 554.328 512.027 Q 553.859 513.023 553.449 514.078 L 553.449 514.078 L 553.449 514.078 Q 553.039 515.133 552.629 516.012 L 552.629 516.012 L 552.629 516.012 Q 552.219 516.891 551.398 516.891 L 551.398 516.891 L 551.398 516.891 Q 551.281 517.828 550.754 518.531 L 550.754 518.531 L 550.754 518.531 Q 550.227 519.234 549.758 519.996 L 549.758 519.996 L 549.758 519.996 Q 549.289 520.758 549.055 521.637 L 549.055 521.637 L 549.055 521.637 Q 548.82 522.516 549.289 523.688 L 549.289 523.688 L 549.289 523.688 Q 548.352 524.391 548.117 525.68 L 548.117 525.68 L 548.117 525.68 Q 547.883 526.969 547.59 528.141 L 547.59 528.141 L 547.59 528.141 Q 547.297 529.313 546.594 530.133 L 546.594 530.133 L 546.594 530.133 Q 545.891 530.953 544.016 530.836 L 544.016 530.836 L 544.016 530.836 Q 543.664 531.305 543.898 531.422 L 543.898 531.422 L 543.898 531.422 Q 544.133 531.539 544.25 532.242 L 544.25 532.242 L 544.25 532.242 Q 542.961 532.008 542.316 532.418 L 542.316 532.418 L 542.316 532.418 Q 541.672 532.828 540.734 532.945 L 540.734 532.945 L 540.734 532.945 Q 538.508 532.242 537.043 530.484 L 537.043 530.484 L 537.043 530.484 Q 535.578 528.727 534.465 526.559 L 534.465 526.559 L 534.465 526.559 Q 533.352 524.391 532.473 522.164 L 532.473 522.164 L 532.473 522.164 Q 531.594 519.938 530.773 518.297 L 530.773 518.297 L 530.773 518.297 Q 531.125 517.008 530.891 515.777 L 530.891 515.777 L 530.891 515.777 Q 530.656 514.547 530.07 513.727 L 530.07 513.727 L 530.07 513.727 Q 535.813 501.539 542.609 487.711 L 542.609 487.711 L 542.609 487.711 Q 549.406 473.883 555.5 460.406 L 555.5 460.406 L 555.5 460.406 Q 558.195 461.461 560.832 462.809 L 560.832 462.809 L 560.832 462.809 Q 563.469 464.156 565.637 465.914 L 565.637 465.914 L 565.637 465.914 Q 567.805 467.672 569.328 469.957 L 569.328 469.957 L 569.328 469.957 Q 570.852 472.242 571.32 475.055 L 571.32 475.055 L 571.32 475.055 Q 571.086 475.758 570.793 475.582 L 570.793 475.582 L 570.793 475.582 Q 570.5 475.406 570.266 475.758 L 570.266 475.758 L 570.266 475.758 Q 570.734 476.344 570.793 476.578 L 570.793 476.578 L 570.793 476.578 Q 570.852 476.813 570.793 477.047 L 570.793 477.047 L 570.793 477.047 Q 570.734 477.281 570.734 477.691 L 570.734 477.691 L 570.734 477.691 Q 570.734 478.102 571.086 478.805 L 571.086 478.805 L 571.086 478.805 Q 570.617 478.688 570.441 478.922 L 570.441 478.922 L 570.441 478.922 Q 570.266 479.156 569.68 478.922 L 569.68 478.922 L 569.68 478.922 Q 570.148 480.211 569.973 481.031 L 569.973 481.031 L 569.973 481.031 Q 569.797 481.852 569.445 482.496 L 569.445 482.496 L 569.445 482.496 Q 569.094 483.141 568.859 483.902 L 568.859 483.902 L 568.859 483.902 Q 568.625 484.664 568.977 485.836 L 568.977 485.836 L 568.977 485.836 Q 568.625 485.836 568.449 486.012 L 568.449 486.012 L 568.449 486.012 Q 568.273 486.188 568.156 486.363 L 568.156 486.363 L 568.156 486.363 Q 568.039 486.539 567.863 486.715 L 567.863 486.715 L 567.863 486.715 Q 567.688 486.891 567.336 486.773 L 567.336 486.773 L 567.336 486.773 Q 567.688 489.352 567.57 491.93 L 567.57 491.93 L 567.57 491.93 Q 567.453 494.508 567.395 497.145 L 567.395 497.145 L 567.395 497.145 Q 567.336 499.781 567.453 502.652 L 567.453 502.652 L 567.453 502.652 Q 567.57 505.523 568.273 508.57 L 568.273 508.57 L 568.273 508.57 Q 572.492 506.109 575.012 502.242 L 575.012 502.242 L 575.012 502.242 Q 577.531 498.375 579.113 493.57 L 579.113 493.57 L 579.113 493.57 Q 580.695 488.766 581.516 483.258 L 581.516 483.258 L 581.516 483.258 Q 582.336 477.75 583.273 472.008 L 583.273 472.008 L 583.273 472.008 Q 584.328 470.953 584.914 469.43 L 584.914 469.43 L 584.914 469.43 Q 585.5 467.906 585.969 466.207 L 585.969 466.207 L 585.969 466.207 Q 586.438 464.508 586.906 462.809 L 586.906 462.809 L 586.906 462.809 Q 587.375 461.109 588.078 459.703 L 588.078 459.703 L 588.078 459.703 Q 589.836 459.938 591.066 460.816 L 591.066 460.816 L 591.066 460.816 Q 592.297 461.695 593.352 462.691 L 593.352 462.691 L 593.352 462.691 Q 594.406 463.688 595.578 464.566 L 595.578 464.566 L 595.578 464.566 Q 596.75 465.445 598.508 465.68 L 598.508 465.68 L 598.508 465.68 Q 599.914 467.672 601.086 469.547 L 601.086 469.547 L 601.086 469.547 Q 602.258 471.422 602.609 473.531 L 602.609 473.531 L 602.609 473.531 Q 602.023 474.469 601.73 475.641 L 601.73 475.641 L 601.73 475.641 Q 601.438 476.813 601.086 477.984 L 601.086 477.984 L 601.086 477.984 Q 600.734 479.156 600.148 480.152 L 600.148 480.152 L 600.148 480.152 Q 599.563 481.148 598.508 481.852 L 598.508 481.852 L 598.508 481.852 Q 598.156 484.898 597.629 487.418 L 597.629 487.418 L 597.629 487.418 Q 597.102 489.938 596.574 492.398 L 596.574 492.398 L 596.574 492.398 Q 596.047 494.859 595.695 497.496 L 595.695 497.496 L 595.695 497.496 Q 595.344 500.133 595.461 503.297 L 595.461 503.297 L 595.461 503.297 Q 594.523 505.992 593.469 509.039 L 593.469 509.039 L 593.469 509.039 Q 592.414 512.086 591.828 514.547 L 591.828 514.547 L 591.828 514.547 Q 589.953 516.07 588.898 518.18 L 588.898 518.18 L 588.898 518.18 Q 587.844 520.289 586.672 522.398 L 586.672 522.398 L 586.672 522.398 Q 586.203 522.867 586.086 522.633 L 586.086 522.633 L 586.086 522.633 Q 585.969 522.398 585.266 522.281 L 585.266 522.281 L 585.266 522.281 Q 585.383 522.75 585.266 522.984 L 585.266 522.984 L 585.266 522.984 Q 585.148 523.219 584.973 523.395 L 584.973 523.395 L 584.973 523.395 Q 584.797 523.57 584.738 523.922 L 584.738 523.922 L 584.738 523.922 Q 584.68 524.273 584.914 524.859 L 584.914 524.859 L 584.914 524.859 Q 583.273 525.563 581.984 526.852 L 581.984 526.852 L 581.984 526.852 Q 580.695 528.141 579.23 529.195 L 579.23 529.195 L 579.23 529.195 Q 577.766 530.25 575.715 530.602 L 575.715 530.602 L 575.715 530.602 Q 573.664 530.953 570.383 529.781 L 570.383 529.781 L 570.383 529.781 Q 565.578 526.266 561.887 521.695 L 561.887 521.695 L 561.887 521.695 Q 558.195 517.125 555.852 510.797 Z  M 623.586 510.797 L 623.586 510.797 L 623.586 510.797 Q 622.531 511.031 622.063 512.027 L 622.063 512.027 L 622.063 512.027 Q 621.594 513.023 621.184 514.078 L 621.184 514.078 L 621.184 514.078 Q 620.773 515.133 620.363 516.012 L 620.363 516.012 L 620.363 516.012 Q 619.953 516.891 619.133 516.891 L 619.133 516.891 L 619.133 516.891 Q 619.016 517.828 618.488 518.531 L 618.488 518.531 L 618.488 518.531 Q 617.961 519.234 617.492 519.996 L 617.492 519.996 L 617.492 519.996 Q 617.023 520.758 616.789 521.637 L 616.789 521.637 L 616.789 521.637 Q 616.555 522.516 617.023 523.688 L 617.023 523.688 L 617.023 523.688 Q 616.086 524.391 615.852 525.68 L 615.852 525.68 L 615.852 525.68 Q 615.617 526.969 615.324 528.141 L 615.324 528.141 L 615.324 528.141 Q 615.031 529.313 614.328 530.133 L 614.328 530.133 L 614.328 530.133 Q 613.625 530.953 611.75 530.836 L 611.75 530.836 L 611.75 530.836 Q 611.398 531.305 611.633 531.422 L 611.633 531.422 L 611.633 531.422 Q 611.867 531.539 611.984 532.242 L 611.984 532.242 L 611.984 532.242 Q 610.695 532.008 610.051 532.418 L 610.051 532.418 L 610.051 532.418 Q 609.406 532.828 608.469 532.945 L 608.469 532.945 L 608.469 532.945 Q 606.242 532.242 604.777 530.484 L 604.777 530.484 L 604.777 530.484 Q 603.313 528.727 602.199 526.559 L 602.199 526.559 L 602.199 526.559 Q 601.086 524.391 600.207 522.164 L 600.207 522.164 L 600.207 522.164 Q 599.328 519.938 598.508 518.297 L 598.508 518.297 L 598.508 518.297 Q 598.859 517.008 598.625 515.777 L 598.625 515.777 L 598.625 515.777 Q 598.391 514.547 597.805 513.727 L 597.805 513.727 L 597.805 513.727 Q 603.547 501.539 610.344 487.711 L 610.344 487.711 L 610.344 487.711 Q 617.141 473.883 623.234 460.406 L 623.234 460.406 L 623.234 460.406 Q 625.93 461.461 628.566 462.809 L 628.566 462.809 L 628.566 462.809 Q 631.203 464.156 633.371 465.914 L 633.371 465.914 L 633.371 465.914 Q 635.539 467.672 637.063 469.957 L 637.063 469.957 L 637.063 469.957 Q 638.586 472.242 639.055 475.055 L 639.055 475.055 L 639.055 475.055 Q 638.82 475.758 638.527 475.582 L 638.527 475.582 L 638.527 475.582 Q 638.234 475.406 638 475.758 L 638 475.758 L 638 475.758 Q 638.469 476.344 638.527 476.578 L 638.527 476.578 L 638.527 476.578 Q 638.586 476.813 638.527 477.047 L 638.527 477.047 L 638.527 477.047 Q 638.469 477.281 638.469 477.691 L 638.469 477.691 L 638.469 477.691 Q 638.469 478.102 638.82 478.805 L 638.82 478.805 L 638.82 478.805 Q 638.352 478.688 638.176 478.922 L 638.176 478.922 L 638.176 478.922 Q 638 479.156 637.414 478.922 L 637.414 478.922 L 637.414 478.922 Q 637.883 480.211 637.707 481.031 L 637.707 481.031 L 637.707 481.031 Q 637.531 481.852 637.18 482.496 L 637.18 482.496 L 637.18 482.496 Q 636.828 483.141 636.594 483.902 L 636.594 483.902 L 636.594 483.902 Q 636.359 484.664 636.711 485.836 L 636.711 485.836 L 636.711 485.836 Q 636.359 485.836 636.184 486.012 L 636.184 486.012 L 636.184 486.012 Q 636.008 486.188 635.891 486.363 L 635.891 486.363 L 635.891 486.363 Q 635.773 486.539 635.598 486.715 L 635.598 486.715 L 635.598 486.715 Q 635.422 486.891 635.07 486.773 L 635.07 486.773 L 635.07 486.773 Q 635.422 489.352 635.305 491.93 L 635.305 491.93 L 635.305 491.93 Q 635.188 494.508 635.129 497.145 L 635.129 497.145 L 635.129 497.145 Q 635.07 499.781 635.188 502.652 L 635.188 502.652 L 635.188 502.652 Q 635.305 505.523 636.008 508.57 L 636.008 508.57 L 636.008 508.57 Q 640.227 506.109 642.746 502.242 L 642.746 502.242 L 642.746 502.242 Q 645.266 498.375 646.848 493.57 L 646.848 493.57 L 646.848 493.57 Q 648.43 488.766 649.25 483.258 L 649.25 483.258 L 649.25 483.258 Q 650.07 477.75 651.008 472.008 L 651.008 472.008 L 651.008 472.008 Q 652.063 470.953 652.648 469.43 L 652.648 469.43 L 652.648 469.43 Q 653.234 467.906 653.703 466.207 L 653.703 466.207 L 653.703 466.207 Q 654.172 464.508 654.641 462.809 L 654.641 462.809 L 654.641 462.809 Q 655.109 461.109 655.813 459.703 L 655.813 459.703 L 655.813 459.703 Q 657.57 459.938 658.801 460.816 L 658.801 460.816 L 658.801 460.816 Q 660.031 461.695 661.086 462.691 L 661.086 462.691 L 661.086 462.691 Q 662.141 463.688 663.313 464.566 L 663.313 464.566 L 663.313 464.566 Q 664.484 465.445 666.242 465.68 L 666.242 465.68 L 666.242 465.68 Q 667.648 467.672 668.82 469.547 L 668.82 469.547 L 668.82 469.547 Q 669.992 471.422 670.344 473.531 L 670.344 473.531 L 670.344 473.531 Q 669.758 474.469 669.465 475.641 L 669.465 475.641 L 669.465 475.641 Q 669.172 476.813 668.82 477.984 L 668.82 477.984 L 668.82 477.984 Q 668.469 479.156 667.883 480.152 L 667.883 480.152 L 667.883 480.152 Q 667.297 481.148 666.242 481.852 L 666.242 481.852 L 666.242 481.852 Q 665.891 484.898 665.363 487.418 L 665.363 487.418 L 665.363 487.418 Q 664.836 489.938 664.309 492.398 L 664.309 492.398 L 664.309 492.398 Q 663.781 494.859 663.43 497.496 L 663.43 497.496 L 663.43 497.496 Q 663.078 500.133 663.195 503.297 L 663.195 503.297 L 663.195 503.297 Q 662.258 505.992 661.203 509.039 L 661.203 509.039 L 661.203 509.039 Q 660.148 512.086 659.563 514.547 L 659.563 514.547 L 659.563 514.547 Q 657.688 516.07 656.633 518.18 L 656.633 518.18 L 656.633 518.18 Q 655.578 520.289 654.406 522.398 L 654.406 522.398 L 654.406 522.398 Q 653.938 522.867 653.82 522.633 L 653.82 522.633 L 653.82 522.633 Q 653.703 522.398 653 522.281 L 653 522.281 L 653 522.281 Q 653.117 522.75 653 522.984 L 653 522.984 L 653 522.984 Q 652.883 523.219 652.707 523.395 L 652.707 523.395 L 652.707 523.395 Q 652.531 523.57 652.473 523.922 L 652.473 523.922 L 652.473 523.922 Q 652.414 524.273 652.648 524.859 L 652.648 524.859 L 652.648 524.859 Q 651.008 525.563 649.719 526.852 L 649.719 526.852 L 649.719 526.852 Q 648.43 528.141 646.965 529.195 L 646.965 529.195 L 646.965 529.195 Q 645.5 530.25 643.449 530.602 L 643.449 530.602 L 643.449 530.602 Q 641.398 530.953 638.117 529.781 L 638.117 529.781 L 638.117 529.781 Q 633.313 526.266 629.621 521.695 L 629.621 521.695 L 629.621 521.695 Q 625.93 517.125 623.586 510.797 Z  M 732.688 466.148 L 732.688 466.148 L 732.688 466.148 Q 732.805 466.969 732.746 467.379 L 732.746 467.379 L 732.746 467.379 Q 732.688 467.789 732.629 468.141 L 732.629 468.141 L 732.629 468.141 Q 732.57 468.492 732.57 468.902 L 732.57 468.902 L 732.57 468.902 Q 732.57 469.313 732.805 470.133 L 732.805 470.133 L 732.805 470.133 Q 730.344 474.117 727.121 475.582 L 727.121 475.582 L 727.121 475.582 Q 723.898 477.047 720.148 477.691 L 720.148 477.691 L 720.148 477.691 Q 716.398 478.336 712.473 479.039 L 712.473 479.039 L 712.473 479.039 Q 708.547 479.742 704.68 482.086 L 704.68 482.086 L 704.68 482.086 Q 703.156 481.5 701.926 482.086 L 701.926 482.086 L 701.926 482.086 Q 700.695 482.672 698.352 482.438 L 698.352 482.438 L 698.352 482.438 Q 697.648 483.141 696.594 483.434 L 696.594 483.434 L 696.594 483.434 Q 695.539 483.727 694.484 484.078 L 694.484 484.078 L 694.484 484.078 Q 694.953 485.133 694.895 486.246 L 694.895 486.246 L 694.895 486.246 Q 694.836 487.359 695.188 488.063 L 695.188 488.063 L 695.188 488.063 Q 699.289 488.414 704.27 487.945 L 704.27 487.945 L 704.27 487.945 Q 709.25 487.477 714.055 487.359 L 714.055 487.359 L 714.055 487.359 Q 714.172 487.945 713.938 488.121 L 713.938 488.121 L 713.938 488.121 Q 713.703 488.297 713.82 488.766 L 713.82 488.766 L 713.82 488.766 Q 714.641 489.352 715.461 490.23 L 715.461 490.23 L 715.461 490.23 Q 716.281 491.109 717.102 491.93 L 717.102 491.93 L 717.102 491.93 Q 717.922 492.75 718.801 493.277 L 718.801 493.277 L 718.801 493.277 Q 719.68 493.805 720.852 493.688 L 720.852 493.688 L 720.852 493.688 Q 721.32 494.625 721.496 495.738 L 721.496 495.738 L 721.496 495.738 Q 721.672 496.852 721.203 498.023 L 721.203 498.023 L 721.203 498.023 Q 719.328 499.313 717.453 500.66 L 717.453 500.66 L 717.453 500.66 Q 715.578 502.008 713.527 503.063 L 713.527 503.063 L 713.527 503.063 Q 711.477 504.117 709.191 504.762 L 709.191 504.762 L 709.191 504.762 Q 706.906 505.406 704.094 505.289 L 704.094 505.289 L 704.094 505.289 Q 703.508 505.289 703.215 505.289 L 703.215 505.289 L 703.215 505.289 Q 702.922 505.289 702.453 504.938 L 702.453 504.938 L 702.453 504.938 Q 701.516 505.523 699.816 505.289 L 699.816 505.289 L 699.816 505.289 Q 698.117 505.055 697.18 505.641 L 697.18 505.641 L 697.18 505.641 Q 695.891 505.055 694.074 505.113 L 694.074 505.113 L 694.074 505.113 Q 692.258 505.172 690.852 504.703 L 690.852 504.703 L 690.852 504.703 Q 688.977 507.164 687.453 509.977 L 687.453 509.977 L 687.453 509.977 Q 685.93 512.789 684.758 515.953 L 684.758 515.953 L 684.758 515.953 Q 688.742 516.539 691.379 516.422 L 691.379 516.422 L 691.379 516.422 Q 694.016 516.305 696.359 516.012 L 696.359 516.012 L 696.359 516.012 Q 698.703 515.719 701.164 515.426 L 701.164 515.426 L 701.164 515.426 Q 703.625 515.133 707.375 515.25 L 707.375 515.25 L 707.375 515.25 Q 709.719 513.961 712.941 513.551 L 712.941 513.551 L 712.941 513.551 Q 716.164 513.141 718.859 512.203 L 718.859 512.203 L 718.859 512.203 Q 719.797 512.555 720.5 513.434 L 720.5 513.434 L 720.5 513.434 Q 721.203 514.313 721.848 515.074 L 721.848 515.074 L 721.848 515.074 Q 722.492 515.836 723.195 516.422 L 723.195 516.422 L 723.195 516.422 Q 723.898 517.008 724.953 516.891 L 724.953 516.891 L 724.953 516.891 Q 725.422 517.359 725.598 518.004 L 725.598 518.004 L 725.598 518.004 Q 725.773 518.648 725.891 519.234 L 725.891 519.234 L 725.891 519.234 Q 726.008 519.82 726.301 520.23 L 726.301 520.23 L 726.301 520.23 Q 726.594 520.641 727.297 520.523 L 727.297 520.523 L 727.297 520.523 Q 725.539 524.391 723.254 526.441 L 723.254 526.441 L 723.254 526.441 Q 720.969 528.492 718.039 529.547 L 718.039 529.547 L 718.039 529.547 Q 715.109 530.602 711.535 531.188 L 711.535 531.188 L 711.535 531.188 Q 707.961 531.773 703.625 532.594 L 703.625 532.594 L 703.625 532.594 Q 702.57 532.828 701.867 532.535 L 701.867 532.535 L 701.867 532.535 Q 701.164 532.242 700.227 532.242 L 700.227 532.242 L 700.227 532.242 Q 697.531 532.828 693.781 533.297 L 693.781 533.297 L 693.781 533.297 Q 690.031 533.766 686.164 533.648 L 686.164 533.648 L 686.164 533.648 Q 682.297 533.531 678.781 532.652 L 678.781 532.652 L 678.781 532.652 Q 675.266 531.773 673.039 529.547 L 673.039 529.547 L 673.039 529.547 Q 672.102 528.727 671.809 527.613 L 671.809 527.613 L 671.809 527.613 Q 671.516 526.5 670.227 525.914 L 670.227 525.914 L 670.227 525.914 Q 670.109 524.391 669.758 522.516 L 669.758 522.516 L 669.758 522.516 Q 669.406 520.641 669.055 518.59 L 669.055 518.59 L 669.055 518.59 Q 668.703 516.539 668.527 514.547 L 668.527 514.547 L 668.527 514.547 Q 668.352 512.555 668.703 510.914 L 668.703 510.914 L 668.703 510.914 Q 669.055 509.156 670.168 507.75 L 670.168 507.75 L 670.168 507.75 Q 671.281 506.344 670.93 504.703 L 670.93 504.703 L 670.93 504.703 Q 671.516 504.586 671.633 504.059 L 671.633 504.059 L 671.633 504.059 Q 671.75 503.531 672.57 503.648 L 672.57 503.648 L 672.57 503.648 Q 673.273 501.539 674.094 499.664 L 674.094 499.664 L 674.094 499.664 Q 674.914 497.789 675.793 496.031 L 675.793 496.031 L 675.793 496.031 Q 676.672 494.273 677.551 492.457 L 677.551 492.457 L 677.551 492.457 Q 678.43 490.641 679.25 488.414 L 679.25 488.414 L 679.25 488.414 Q 677.609 486.891 676.848 485.074 L 676.848 485.074 L 676.848 485.074 Q 676.086 483.258 675.734 481.441 L 675.734 481.441 L 675.734 481.441 Q 675.383 479.625 675.148 477.691 L 675.148 477.691 L 675.148 477.691 Q 674.914 475.758 674.328 473.766 L 674.328 473.766 L 674.328 473.766 Q 675.5 472.008 677.199 470.895 L 677.199 470.895 L 677.199 470.895 Q 678.898 469.781 680.891 469.078 L 680.891 469.078 L 680.891 469.078 Q 682.883 468.375 685.227 467.906 L 685.227 467.906 L 685.227 467.906 Q 687.57 467.438 690.148 466.852 L 690.148 466.852 L 690.148 466.852 Q 694.836 465.328 698.527 464.508 L 698.527 464.508 L 698.527 464.508 Q 702.219 463.688 705.793 463.16 L 705.793 463.16 L 705.793 463.16 Q 709.367 462.633 713.234 462.164 L 713.234 462.164 L 713.234 462.164 Q 717.102 461.695 722.023 460.758 L 722.023 460.758 L 722.023 460.758 Q 723.078 461.813 724.016 461.813 L 724.016 461.813 L 724.016 461.813 Q 724.484 460.758 725.129 461.168 L 725.129 461.168 L 725.129 461.168 Q 725.773 461.578 725.656 460.523 L 725.656 460.523 L 725.656 460.523 Q 726.828 462.516 728.645 463.863 L 728.645 463.863 L 728.645 463.863 Q 730.461 465.211 732.688 466.148 Z  M 777.453 532.359 L 777.453 532.359 L 777.453 532.359 Q 775.578 532.477 772.824 532.242 L 772.824 532.242 L 772.824 532.242 Q 770.07 532.008 767.727 533.063 L 767.727 533.063 L 767.727 533.063 Q 761.516 532.828 755.07 531.539 L 755.07 531.539 L 755.07 531.539 Q 748.625 530.25 743.234 528.375 L 743.234 528.375 L 743.234 528.375 Q 742.063 527.086 740.891 525.973 L 740.891 525.973 L 740.891 525.973 Q 739.719 524.859 737.727 524.391 L 737.727 524.391 L 737.727 524.391 Q 734.914 522.164 733.156 518.941 L 733.156 518.941 L 733.156 518.941 Q 731.398 515.719 730.344 512.086 L 730.344 512.086 L 730.344 512.086 Q 729.289 508.453 728.938 504.645 L 728.938 504.645 L 728.938 504.645 Q 728.586 500.836 728.703 497.32 L 728.703 497.32 L 728.703 497.32 Q 730.461 492.047 733.684 488.238 L 733.684 488.238 L 733.684 488.238 Q 736.906 484.43 740.305 480.68 L 740.305 480.68 L 740.305 480.68 Q 741.828 479.977 742.59 479.215 L 742.59 479.215 L 742.59 479.215 Q 743.352 478.453 744.23 477.809 L 744.23 477.809 L 744.23 477.809 Q 745.109 477.164 745.988 476.52 L 745.988 476.52 L 745.988 476.52 Q 746.867 475.875 747.57 474.938 L 747.57 474.938 L 747.57 474.938 Q 750.031 474.352 751.848 473.238 L 751.848 473.238 L 751.848 473.238 Q 753.664 472.125 755.422 470.895 L 755.422 470.895 L 755.422 470.895 Q 757.18 469.664 759.055 468.609 L 759.055 468.609 L 759.055 468.609 Q 760.93 467.555 763.391 466.969 L 763.391 466.969 L 763.391 466.969 Q 764.328 465.914 765.617 465.27 L 765.617 465.27 L 765.617 465.27 Q 766.906 464.625 768.254 463.98 L 768.254 463.98 L 768.254 463.98 Q 769.602 463.336 770.832 462.633 L 770.832 462.633 L 770.832 462.633 Q 772.063 461.93 772.766 460.758 L 772.766 460.758 L 772.766 460.758 Q 773.352 461.695 774.406 461.402 L 774.406 461.402 L 774.406 461.402 Q 775.461 461.109 776.398 460.758 L 776.398 460.758 L 776.398 460.758 Q 776.984 460.641 777.395 460.992 L 777.395 460.992 L 777.395 460.992 Q 777.805 461.344 778.156 461.695 L 778.156 461.695 L 778.156 461.695 Q 778.508 462.047 778.801 462.105 L 778.801 462.105 L 778.801 462.105 Q 779.094 462.164 779.328 461.578 L 779.328 461.578 L 779.328 461.578 Q 779.914 461.578 779.68 462.164 L 779.68 462.164 L 779.68 462.164 Q 779.445 462.75 779.328 462.984 L 779.328 462.984 L 779.328 462.984 Q 780.266 462.867 780.91 463.395 L 780.91 463.395 L 780.91 463.395 Q 781.555 463.922 782.961 464.039 L 782.961 464.039 L 782.961 464.039 Q 783.43 464.625 783.195 464.918 L 783.195 464.918 L 783.195 464.918 Q 782.961 465.211 782.961 465.914 L 782.961 465.914 L 782.961 465.914 Q 786.477 466.969 787.414 469.254 L 787.414 469.254 L 787.414 469.254 Q 788.352 471.539 787.531 474 L 787.531 474 L 787.531 474 Q 786.711 476.461 784.602 478.57 L 784.602 478.57 L 784.602 478.57 Q 782.492 480.68 780.031 481.383 L 780.031 481.383 L 780.031 481.383 Q 774.406 482.906 769.426 484.723 L 769.426 484.723 L 769.426 484.723 Q 764.445 486.539 761.281 490.055 L 761.281 490.055 L 761.281 490.055 Q 758.469 490.875 756.301 492.223 L 756.301 492.223 L 756.301 492.223 Q 754.133 493.57 752.199 495.27 L 752.199 495.27 L 752.199 495.27 Q 750.266 496.969 748.566 498.785 L 748.566 498.785 L 748.566 498.785 Q 746.867 500.602 744.992 502.359 L 744.992 502.359 L 744.992 502.359 Q 745.109 504 744.465 504.879 L 744.465 504.879 L 744.465 504.879 Q 743.82 505.758 743.234 506.695 L 743.234 506.695 L 743.234 506.695 Q 743.469 508.453 744.055 509.801 L 744.055 509.801 L 744.055 509.801 Q 744.641 511.148 745.344 512.438 L 745.344 512.438 L 745.344 512.438 Q 753.078 514.781 761.809 515.367 L 761.809 515.367 L 761.809 515.367 Q 770.539 515.953 779.328 516.07 L 779.328 516.07 L 779.328 516.07 Q 780.148 517.242 781.262 518.238 L 781.262 518.238 L 781.262 518.238 Q 782.375 519.234 783.313 520.348 L 783.313 520.348 L 783.313 520.348 Q 784.25 521.461 784.836 522.809 L 784.836 522.809 L 784.836 522.809 Q 785.422 524.156 785.07 526.148 L 785.07 526.148 L 785.07 526.148 Q 783.43 527.906 781.438 529.371 L 781.438 529.371 L 781.438 529.371 Q 779.445 530.836 777.453 532.359 Z  M 857.023 475.758 L 857.023 475.758 L 857.023 475.758 Q 854.094 475.758 850.695 476.168 L 850.695 476.168 L 850.695 476.168 Q 847.297 476.578 844.016 477.047 L 844.016 477.047 L 844.016 477.047 Q 841.672 477.398 839.504 477.633 L 839.504 477.633 L 839.504 477.633 Q 837.336 477.867 835.578 477.984 L 835.578 477.984 L 835.578 477.984 Q 834.758 480.563 833.938 482.555 L 833.938 482.555 L 833.938 482.555 Q 833.117 484.547 832.18 486.422 L 832.18 486.422 L 832.18 486.422 Q 831.242 488.414 830.48 490.465 L 830.48 490.465 L 830.48 490.465 Q 829.719 492.516 829.016 494.859 L 829.016 494.859 L 829.016 494.859 Q 827.844 496.734 827.082 498.316 L 827.082 498.316 L 827.082 498.316 Q 826.32 499.898 825.852 501.891 L 825.852 501.891 L 825.852 501.891 Q 824.445 503.648 823.742 505.582 L 823.742 505.582 L 823.742 505.582 Q 823.039 507.516 822.688 508.922 L 822.688 508.922 L 822.219 510.328 L 822.219 510.328 Q 821.516 511.031 821.398 511.441 L 821.398 511.441 L 821.398 511.441 Q 821.281 511.852 820.813 512.203 L 820.813 512.203 L 820.813 512.203 Q 820.695 513.492 819.992 514.781 L 819.992 514.781 L 819.992 514.781 Q 819.758 515.367 819.641 515.895 L 819.641 515.895 L 819.641 515.895 Q 819.523 516.422 819.523 516.656 L 819.523 516.656 L 819.523 516.656 Q 819.523 517.828 818.938 518.18 L 818.938 518.18 L 818.938 518.18 Q 819.055 518.766 818.938 519.41 L 818.938 519.41 L 818.938 519.41 Q 818.82 520.055 818.703 520.641 L 818.703 520.641 L 818.703 520.641 Q 818.352 522.047 818.469 522.867 L 818.469 522.867 L 818.469 522.867 Q 818.82 523.336 819.113 523.688 L 819.113 523.688 L 819.113 523.688 Q 819.406 524.039 819.523 524.625 L 819.523 524.625 L 819.523 524.625 Q 820.227 525.094 820.578 525.211 L 820.578 525.211 L 820.578 525.211 Q 821.047 525.563 821.984 526.031 L 821.984 526.031 L 823.039 527.203 L 823.039 527.203 Q 823.625 530.602 821.984 532.594 L 821.984 532.594 L 821.984 532.594 Q 820.227 534.82 816.008 534.82 L 816.008 534.82 L 814.602 534.82 L 814.602 534.82 Q 814.016 534.234 813.898 533.883 L 813.898 533.883 L 813.898 533.883 Q 812.961 533.531 812.375 533.297 L 812.375 533.297 L 812.375 533.297 Q 811.789 533.063 811.32 532.359 L 811.32 532.359 L 811.32 532.359 Q 809.797 531.656 808.859 531.188 L 808.859 531.188 L 807.805 530.602 L 807.805 530.602 Q 807.805 529.313 807.805 529.195 L 807.805 529.195 L 807.805 529.195 Q 806.984 528.141 806.574 526.852 L 806.574 526.852 L 806.574 526.852 Q 806.164 525.563 805.93 524.273 L 805.93 524.273 L 805.93 524.273 Q 805.695 523.219 805.402 522.281 L 805.402 522.281 L 805.402 522.281 Q 805.109 521.344 804.641 520.641 L 804.641 520.641 L 804.641 520.641 Q 804.406 513.844 805.93 509.156 L 805.93 509.156 L 805.93 509.156 Q 807.453 504.469 809.094 500.133 L 809.094 500.133 L 809.094 500.133 Q 810.031 497.789 810.969 495.387 L 810.969 495.387 L 810.969 495.387 Q 811.906 492.984 812.609 490.406 L 812.609 490.406 L 813.664 489.234 L 813.664 489.234 Q 814.484 487.359 815.012 486.129 L 815.012 486.129 L 815.012 486.129 Q 815.539 484.898 816.125 483.609 L 816.125 483.609 L 816.125 483.609 Q 816.477 482.789 816.77 482.027 L 816.77 482.027 L 816.77 482.027 Q 817.063 481.266 817.297 480.68 L 817.297 480.68 L 817.297 480.68 Q 816.594 480.68 816.008 480.738 L 816.008 480.738 L 816.008 480.738 Q 815.422 480.797 814.836 480.914 L 814.836 480.914 L 814.836 480.914 Q 814.133 481.031 813.547 481.09 L 813.547 481.09 L 813.547 481.09 Q 812.961 481.148 812.375 481.148 L 812.375 481.148 L 812.375 481.148 Q 811.555 481.148 811.203 481.031 L 811.203 481.031 L 811.203 481.031 Q 809.914 481.617 808.391 481.617 L 808.391 481.617 L 807.219 481.617 L 807.219 481.617 Q 806.867 481.617 806.574 481.559 L 806.574 481.559 L 806.574 481.559 Q 806.281 481.5 806.047 481.5 L 806.047 481.5 L 806.047 481.5 Q 804.875 481.5 804.172 481.852 L 804.172 481.852 L 804.172 481.852 Q 802.766 481.852 801.477 481.852 L 801.477 481.852 L 800.305 481.852 L 800.305 481.852 Q 800.07 481.852 799.719 481.91 L 799.719 481.91 L 799.719 481.91 Q 799.367 481.969 799.133 481.969 L 799.133 481.969 L 799.133 481.969 Q 798.313 481.969 797.375 481.793 L 797.375 481.793 L 797.375 481.793 Q 796.438 481.617 795.383 481.031 L 795.383 481.031 L 795.383 481.031 Q 793.977 479.156 793.508 479.039 L 793.508 479.039 L 792.453 477.633 L 792.453 477.633 Q 792.336 476.93 792.102 476.285 L 792.102 476.285 L 792.102 476.285 Q 791.867 475.641 791.633 474.82 L 791.633 474.82 L 791.633 474.82 Q 791.164 473.648 790.754 472.301 L 790.754 472.301 L 790.754 472.301 Q 790.344 470.953 790.344 469.078 L 790.344 469.078 L 790.344 469.078 Q 790.461 468.141 790.813 467.672 L 790.813 467.672 L 790.813 467.672 Q 791.164 467.203 791.398 466.852 L 791.398 466.852 L 791.75 465.094 L 793.273 465.211 L 796.555 465.211 L 796.555 465.211 Q 800.305 465.211 804.172 464.918 L 804.172 464.918 L 804.172 464.918 Q 808.039 464.625 812.141 464.273 L 812.141 464.273 L 812.141 464.273 Q 814.484 464.039 816.887 463.805 L 816.887 463.805 L 816.887 463.805 Q 819.289 463.57 821.867 463.336 L 821.867 463.336 L 821.867 463.336 Q 822.336 462.281 822.805 461.344 L 822.805 461.344 L 823.977 460.758 L 823.977 460.758 Q 826.086 460.641 826.965 461.285 L 826.965 461.285 L 826.965 461.285 Q 827.844 461.93 828.43 462.516 L 828.43 462.516 L 828.43 462.516 Q 831.008 462.281 833.645 461.988 L 833.645 461.988 L 833.645 461.988 Q 836.281 461.695 838.977 461.227 L 838.977 461.227 L 838.977 461.227 Q 842.961 460.641 847.004 460.172 L 847.004 460.172 L 847.004 460.172 Q 851.047 459.703 854.797 459.703 L 854.797 459.703 L 854.797 459.703 Q 856.438 459.703 857.961 459.82 L 857.961 459.82 L 857.961 459.82 Q 859.484 459.938 860.773 460.172 L 860.773 460.172 L 861.945 460.992 L 861.945 460.992 Q 862.297 461.695 862.941 462.281 L 862.941 462.281 L 862.941 462.281 Q 863.586 462.867 864.289 463.453 L 864.289 463.453 L 864.289 463.453 Q 865.695 464.742 867.102 466.5 L 867.102 466.5 L 867.102 466.5 Q 868.508 468.258 868.156 471.656 L 868.156 471.656 L 868.156 471.656 Q 867.219 473.063 866.75 473.297 L 866.75 473.297 L 865.695 474.703 L 864.523 474.586 L 864.523 474.586 Q 863.82 474.586 863.234 474.762 L 863.234 474.762 L 863.234 474.762 Q 862.648 474.938 862.063 475.172 L 862.063 475.172 L 862.063 475.172 Q 861.594 475.406 861.125 475.582 L 861.125 475.582 L 861.125 475.582 Q 860.656 475.758 860.07 475.875 L 860.07 475.875 L 860.07 475.875 Q 859.016 475.875 858.371 475.816 L 858.371 475.816 L 858.371 475.816 Q 857.727 475.758 857.023 475.758 Z  M 880.227 451.5 L 880.227 451.5 L 880.227 451.5 Q 880.227 452.555 879.934 454.078 L 879.934 454.078 L 879.934 454.078 Q 879.641 455.602 879.406 457.125 L 879.406 457.125 L 879.406 457.125 Q 879.172 458.648 879.289 459.879 L 879.289 459.879 L 879.289 459.879 Q 879.406 461.109 880.344 461.461 L 880.344 461.461 L 880.344 461.461 Q 878.234 467.672 877.473 471.891 L 877.473 471.891 L 877.473 471.891 Q 876.711 476.109 876.184 479.918 L 876.184 479.918 L 876.184 479.918 Q 875.656 483.727 874.836 487.945 L 874.836 487.945 L 874.836 487.945 Q 874.016 492.164 871.906 498.258 L 871.906 498.258 L 871.906 498.258 Q 870.617 502.008 868.742 503.473 L 868.742 503.473 L 868.742 503.473 Q 866.867 504.938 864.758 504.938 L 864.758 504.938 L 864.758 504.938 Q 862.648 504.938 860.422 503.766 L 860.422 503.766 L 860.422 503.766 Q 858.195 502.594 856.32 501.188 L 856.32 501.188 L 856.32 501.188 Q 855.969 498.961 856.262 495.738 L 856.262 495.738 L 856.262 495.738 Q 856.555 492.516 857.023 489 L 857.023 489 L 857.023 489 Q 857.492 485.484 857.961 482.262 L 857.961 482.262 L 857.961 482.262 Q 858.43 479.039 858.664 476.813 L 858.664 476.813 L 858.664 476.813 Q 859.836 475.523 860.305 474.703 L 860.305 474.703 L 860.305 474.703 Q 860.773 473.883 860.949 472.945 L 860.949 472.945 L 860.949 472.945 Q 861.125 472.008 861.242 470.602 L 861.242 470.602 L 861.242 470.602 Q 861.359 469.195 861.828 466.617 L 861.828 466.617 L 861.828 466.617 Q 862.063 465.328 861.652 464.332 L 861.652 464.332 L 861.652 464.332 Q 861.242 463.336 861.477 462.398 L 861.477 462.398 L 861.477 462.398 Q 861.711 461.93 862.238 461.695 L 862.238 461.695 L 862.238 461.695 Q 862.766 461.461 862.883 460.875 L 862.883 460.875 L 862.883 460.875 Q 863.352 459.352 863.117 458.473 L 863.117 458.473 L 863.117 458.473 Q 862.883 457.594 863.469 456.305 L 863.469 456.305 L 863.469 456.305 Q 864.055 455.367 864.934 453.316 L 864.934 453.316 L 864.934 453.316 Q 865.813 451.266 865.578 449.039 L 865.578 449.039 L 865.578 449.039 Q 866.633 448.219 867.57 447.164 L 867.57 447.164 L 867.57 447.164 Q 868.508 446.109 869.504 445.23 L 869.504 445.23 L 869.504 445.23 Q 870.5 444.352 871.73 443.766 L 871.73 443.766 L 871.73 443.766 Q 872.961 443.18 874.719 443.18 L 874.719 443.18 L 874.719 443.18 Q 875.656 444.469 876.125 445.641 L 876.125 445.641 L 876.125 445.641 Q 876.594 446.813 877.004 447.867 L 877.004 447.867 L 877.004 447.867 Q 877.414 448.922 878.117 449.859 L 878.117 449.859 L 878.117 449.859 Q 878.82 450.797 880.227 451.5 Z  M 868.156 517.242 L 868.625 518.18 L 868.625 518.18 Q 868.859 519.117 868.977 519.938 L 868.977 519.938 L 868.977 519.938 Q 869.094 520.758 869.211 521.695 L 869.211 521.695 L 869.211 521.695 Q 868.508 524.156 867.688 526.148 L 867.688 526.148 L 867.688 526.148 Q 867.336 526.969 867.219 527.203 L 867.219 527.203 L 867.219 527.203 Q 867.102 527.438 867.102 527.555 L 867.102 527.555 L 867.102 527.555 Q 867.102 527.672 867.219 527.848 L 867.219 527.848 L 867.219 527.848 Q 867.336 528.023 867.336 528.844 L 867.336 528.844 L 866.75 530.25 L 866.75 530.25 Q 866.164 531.07 865.402 531.539 L 865.402 531.539 L 865.402 531.539 Q 864.641 532.008 863.82 532.359 L 863.82 532.359 L 863.82 532.359 Q 863.469 532.594 863.059 532.77 L 863.059 532.77 L 863.059 532.77 Q 862.648 532.945 862.414 533.18 L 862.414 533.18 L 862.063 534.586 L 860.422 534.82 L 860.422 534.82 Q 858.547 535.289 857.023 535.289 L 857.023 535.289 L 855.734 535.289 L 855.734 535.289 Q 854.328 534 853.508 533.297 L 853.508 533.297 L 853.508 533.297 Q 852.688 532.594 851.633 532.008 L 851.633 532.008 L 851.633 532.008 Q 850.344 529.781 850.109 528.141 L 850.109 528.141 L 850.109 528.141 Q 849.875 526.617 849.523 526.148 L 849.523 526.148 L 847.883 524.508 L 849.289 523.453 L 847.883 521.227 L 847.883 521.227 Q 849.289 520.172 849.992 519.703 L 849.992 519.703 L 849.992 519.703 Q 850.695 519.234 851.223 518.707 L 851.223 518.707 L 851.223 518.707 Q 851.75 518.18 852.336 517.359 L 852.336 517.359 L 852.336 517.359 Q 852.922 516.539 854.211 514.664 L 854.211 514.664 L 855.266 513.141 L 856.672 513.961 L 856.672 513.961 Q 857.258 514.313 858.84 514.605 L 858.84 514.605 L 858.84 514.605 Q 860.422 514.898 861.594 515.133 L 861.594 515.133 L 861.594 515.133 Q 863.469 515.719 865.285 516.012 L 865.285 516.012 L 865.285 516.012 Q 867.102 516.305 868.156 517.242 L 868.156 517.242 L 868.156 517.242 Z " fill-rule="evenodd" fill="rgb(0,0,0)"/></g></svg>